<svg xmlns="http://www.w3.org/2000/svg" viewBox="0 0 24 30" x="0px" y="0px"><g fill="#000000" stroke="none"><path d="M11.640 20.990 c-5.490 -0.120 -8.500 -3.140 -8.630 -8.670 -0.010 -0.550 -0.010 -7.770 0.000 -7.920 0.120 -1.410 1.890 -1.900 2.710 -0.760 0.240 0.330 0.280 0.540 0.280 1.420 0.000 0.430 0.000 0.530 0.010 0.530 0.170 -0.070 0.310 -0.080 0.750 -0.090 l0.400 0.000 0.080 -0.130 c0.980 -1.490 2.540 -2.300 4.510 -2.360 4.490 -0.120 7.620 1.800 8.740 5.360 0.680 2.170 0.680 5.090 0.000 7.270 -1.060 3.360 -3.920 5.270 -8.010 5.350 -0.150 0.000 -0.330 0.000 -0.390 0.000 -0.070 0.000 -0.270 0.000 -0.450 0.000z m1.230 -1.010 c4.550 -0.320 6.900 -2.730 7.120 -7.320 0.270 -5.630 -2.500 -8.660 -7.920 -8.660 -3.030 0.000 -4.700 1.740 -5.020 5.230 -0.040 0.450 -0.040 0.570 -0.040 1.270 0.000 3.010 0.770 4.900 2.400 5.870 0.920 0.550 2.230 0.750 3.650 0.570 2.590 -0.340 3.940 -2.030 3.940 -4.940 0.000 -2.440 -0.930 -4.000 -2.770 -4.670 -0.860 -0.310 -2.240 -0.430 -2.780 -0.250 -0.850 0.280 -1.310 1.150 -1.430 2.690 -0.020 0.220 -0.020 1.240 0.000 1.460 0.130 1.650 0.650 2.530 1.620 2.740 0.140 0.030 0.610 0.040 0.790 0.010 0.880 -0.140 1.400 -0.660 1.550 -1.540 0.020 -0.160 0.030 -1.490 0.000 -1.580 -0.140 -0.480 -0.820 -0.480 -0.960 0.000 -0.020 0.050 -0.020 0.120 -0.020 0.570 0.000 0.950 -0.030 1.130 -0.240 1.330 -0.240 0.250 -0.860 0.320 -1.140 0.120 -0.370 -0.240 -0.580 -1.000 -0.610 -2.100 -0.030 -1.590 0.230 -2.560 0.750 -2.740 0.200 -0.070 0.950 -0.030 1.490 0.080 1.870 0.370 2.730 1.590 2.730 3.880 0.000 2.570 -1.090 3.820 -3.500 3.980 -3.030 0.210 -4.470 -1.550 -4.470 -5.480 0.000 -3.400 1.080 -5.170 3.320 -5.450 0.760 -0.100 2.090 -0.020 2.990 0.180 2.930 0.650 4.400 2.520 4.650 5.940 0.020 0.230 0.020 1.170 0.010 1.440 -0.210 4.320 -2.470 6.380 -6.980 6.380 -4.320 0.000 -6.590 -1.900 -6.940 -5.840 -0.060 -0.570 -0.060 -0.860 -0.060 -5.020 0.000 -3.390 0.000 -3.720 -0.020 -3.770 -0.140 -0.480 -0.820 -0.480 -0.960 0.000 -0.020 0.060 -0.030 7.910 -0.010 8.300 0.230 4.650 2.660 7.090 7.310 7.330 0.210 0.010 1.360 0.000 1.550 -0.010z "/></g><text x="0" y="39" fill="#000000" font-size="5px" font-weight="bold" font-family="'Helvetica Neue', Helvetica, Arial-Unicode, Arial, Sans-serif">Created by TooJooGoo</text><text x="0" y="44" fill="#000000" font-size="5px" font-weight="bold" font-family="'Helvetica Neue', Helvetica, Arial-Unicode, Arial, Sans-serif">from the Noun Project</text></svg>